<svg width="121px" height="46px" viewBox="0 0 121 46" version="1.1" xmlns="http://www.w3.org/2000/svg" xmlns:xlink="http://www.w3.org/1999/xlink">
  <!-- Generator: Sketch 50.2 (55047) - http://www.bohemiancoding.com/sketch -->
  <desc>Created with Sketch.</desc>
  <defs>
    <linearGradient x1="33.64483%" y1="0%" x2="63.0041846%" y2="96.0668135%" id="linearGradient-1">
      <stop stop-color="#007DFD" offset="0%"></stop>
      <stop stop-color="#208FFF" offset="100%"></stop>
    </linearGradient>
    <radialGradient cx="11.5773915%" cy="3.99990996%" fx="11.5773915%" fy="3.99990996%" r="113.617183%" gradientTransform="translate(0.115774,0.039999),scale(0.466667,1.000000),rotate(29.564426),translate(-0.115774,-0.039999)" id="radialGradient-2">
      <stop stop-color="#62B5FF" offset="0%"></stop>
      <stop stop-color="#1B8CFE" offset="100%"></stop>
    </radialGradient>
    <radialGradient cx="11.5773915%" cy="3.99990996%" fx="11.5773915%" fy="3.99990996%" r="226.979203%" gradientTransform="translate(0.115774,0.039999),scale(0.209677,1.000000),rotate(14.298775),translate(-0.115774,-0.039999)" id="radialGradient-3">
      <stop stop-color="#62B5FF" offset="0%"></stop>
      <stop stop-color="#1B8CFE" offset="100%"></stop>
    </radialGradient>
  </defs>
  <g id="Page-1" stroke="none" stroke-width="1" fill="none" fill-rule="evenodd">
    <g id="fdf">
      <g id="LOGO">
        <path d="M12.9935928,9.85589276 L22.6823225,0 L32.2982111,9.85589276 L29.4005305,9.85589276 L22.6823225,3.2612492 L16.4133493,9.85589276 L12.9935928,9.85589276 Z M22.9790086,22.979482 L23.5050976,22.422752 L22.9541103,22.9536412 L22.9790086,22.979482 Z M17.9626209,18.1650129 L16.8180368,10.6359007 L22.7927438,4.43690116 L28.9891661,10.6359007 L27.7673302,18.0740115 L35.3144463,16.9266904 L41.5134459,22.9013974 L35.3144463,29.0978197 L27.8727249,27.8753908 L29.0111668,35.3640993 L23.0364598,41.5630988 L16.8400375,35.3640993 L18.0461353,28.0217966 L10.6855537,29.1407605 L4.48655414,23.1660535 L10.6855537,16.9696312 L17.9626209,18.1650129 Z M36.1438926,13.1036875 L45.9997854,22.7924171 L36.1438926,32.4083058 L36.1438926,29.5106251 L42.7385362,22.7924171 L36.1438926,16.523444 L36.1438926,13.1036875 Z M32.8356108,36.1441072 L23.1468811,46 L13.5309925,36.1441072 L16.4286731,36.1441072 L23.1468811,42.7387508 L29.4158543,36.1441072 L32.8356108,36.1441072 Z M9.85610738,32.9637635 L0.000214619693,23.2750338 L9.85610738,13.6591451 L9.85610738,16.5568258 L3.26146382,23.2750338 L9.85610738,29.544007 L9.85610738,32.9637635 Z" id="Combined-Shape" fill="url(#linearGradient-1)"></path>
        <path d="M22.4256288,22.8901704 C20.7020253,20.8318284 19.8402235,18.8495204 19.8402235,16.9432464 C19.8402235,14.0838354 21.0974591,13 22.4256288,13 C23.7537984,13 25.2034055,13.8419464 25.2034055,16.9432464 C25.2034055,19.0107798 24.2774799,20.9930878 22.4256288,22.8901704 Z M22.5634623,22.8356324 C24.6218043,21.1120289 26.6041123,20.2502272 28.5103863,20.2502272 C31.3697973,20.2502272 32.4536327,21.5074628 32.4536327,22.8356324 C32.4536327,24.1638021 31.6116863,25.6134092 28.5103863,25.6134092 C26.4428529,25.6134092 24.4605449,24.6874836 22.5634623,22.8356324 Z M22.6180003,22.973466 C24.3416038,25.031808 25.2034055,27.0141159 25.2034055,28.9203899 C25.2034055,31.7798009 23.94617,32.8636364 22.6180003,32.8636364 C21.2898306,32.8636364 19.8402235,32.02169 19.8402235,28.9203899 C19.8402235,26.8528566 20.7661491,24.8705486 22.6180003,22.973466 Z M22.4801667,23.0280039 C20.4218247,24.7516074 18.4395168,25.6134092 16.5332428,25.6134092 C13.6738318,25.6134092 12.5899963,24.3561736 12.5899963,23.0280039 C12.5899963,21.6998343 13.4319427,20.2502272 16.5332428,20.2502272 C18.6007761,20.2502272 20.5830841,21.1761528 22.4801667,23.0280039 Z" id="Path-3" fill="#FFFFFF"></path>
      </g>
      <text id="房大夫" fill="url(#radialGradient-2)" font-family="PingFangSC-Semibold, PingFang SC" font-size="20" font-weight="500">
        <tspan x="58" y="26">房大夫</tspan>
      </text>
      <text id="Houses-Doctor" fill="url(#radialGradient-3)" font-family="PingFangSC-Light, PingFang SC" font-size="9" font-weight="300">
        <tspan x="59" y="39">Houses Doctor</tspan>
      </text>
    </g>
  </g>
</svg>